#!OML:ASF H:\MichaelJackson\Top Level 1\Subject 1\Session 1\male.ASF
:FULLY-SPECIFIED
:DEGREES
1075
root -8.62652 17.1975 -1.24604 -167.147 -6.99429 -180.445
lowerback 5.17595 -0.445573 -1.00123
upperback 1.32996 -0.688315 0.8177
thorax -1.5125 -0.365203 1.44596
lowerneck -8.9803 -2.09425 0.989792
upperneck 7.27571 -2.96304 0.16163
head 3.97541 -1.43291 -0.307218
rclavicle 9.54166e-015 3.18055e-015
rhumerus -14.8756 16.4933 -82.4821
rradius 71.7794
rwrist 39.0101
rhand -43.5613 -29.0598
rfingers 7.12502
rthumb -16.3988 -58.3865
lclavicle 9.54166e-015 3.18055e-015
lhumerus -47.913 -17.6893 99.3405
lradius 57.2378
lwrist 1.86826
lhand -15.5307 29.8287
lfingers 7.12502
lthumb 10.6528 59.5387
rfemur -49.1134 -3.14925 18.0867
rtibia 56.836
rfoot 5.38084 1.92273
rtoes -11.6225
lfemur -27.4491 13.3379 -23.3834
ltibia 42.3681
lfoot -15.7833 -15.2113
ltoes 33.2734
1076
root -8.63077 17.1985 -1.17478 -167.22 -6.99713 -180.425
lowerback 5.13001 -0.477753 -1.11266
upperback 1.31732 -0.735155 0.858057
thorax -1.49639 -0.388022 1.55249
lowerneck -8.20639 -2.27696 1.84694
upperneck 6.73453 -3.21833 -0.706618
head 3.59985 -1.57986 -0.740782
rclavicle -6.5102e-015 7.7526e-015
rhumerus -15.8022 16.3585 -83.1265
rradius 71.4627
rwrist 39.0138
rhand -43.9506 -29.2852
rfingers 7.12502
rthumb -16.7737 -58.5807
lclavicle -6.5102e-015 7.7526e-015
lhumerus -47.2084 -18.1344 99.2661
lradius 58.0358
lwrist 1.41983
lhand -16.2775 29.4398
lfingers 7.12502
lthumb 9.93247 59.1855
rfemur -49.6238 -3.35231 18.3158
rtibia 58.1628
rfoot 6.84919 2.54261
rtoes -8.19727
lfemur -27.4265 13.2175 -23.4732
ltibia 42.0498
lfoot -16.0241 -14.942
ltoes 33.7511
1077
root -8.63365 17.1977 -1.10184 -167.308 -6.9008 -180.39
lowerback 5.17689 -0.437558 -1.18487
upperback 1.29602 -0.685174 0.858453
thorax -1.54532 -0.362103 1.59106
lowerneck -8.03484 -2.15266 2.11612
upperneck 6.63469 -3.05061 -1.04885
head 3.52502 -1.50549 -0.887194
rclavicle -5.96354e-016 -1.98785e-015
rhumerus -16.8005 16.1076 -83.7458
rradius 71.166
rwrist 39.0111
rhand -44.2602 -29.4221
rfingers 7.12502
rthumb -17.0717 -58.692
lclavicle -5.96354e-016 -1.98785e-015
lhumerus -46.6115 -18.602 99.1701
lradius 59.0183
lwrist 0.964511
lhand -16.4036 29.4311
lfingers 7.12502
lthumb 9.81078 59.1826
rfemur -50.1377 -3.43264 18.5288
rtibia 59.4942
rfoot 8.02975 3.11404
rtoes -6.67083
lfemur -27.4212 13.1959 -23.5561
ltibia 41.762
lfoot -16.228 -14.6867
ltoes 33.7122
1078
root -8.63305 17.19 -1.02171 -166.977 -6.34653 -180.186
lowerback 4.79522 -0.285533 -1.28273
upperback 1.14828 -0.474317 0.887067
thorax -1.49043 -0.25213 1.65946
lowerneck -7.81019 -2.10858 2.17918
upperneck 6.55475 -2.99207 -1.07785
head 3.4531 -1.47693 -0.899267
rclavicle 2.33572e-015 -1.98785e-015
rhumerus -17.8688 16.0168 -84.3868
rradius 70.9162
rwrist 39.0118
rhand -44.4354 -29.7322
rfingers 7.12502
rthumb -17.2403 -58.9875
lclavicle 2.33572e-015 -1.98785e-015
lhumerus -46.0456 -18.9934 98.9685
lradius 60.2238
lwrist 0.418489
lhand -17.0669 29.0718
lfingers 7.12502
lthumb 9.17078 58.8524
rfemur -51.2411 -3.04462 18.8434
rtibia 60.8036
rfoot 9.3857 3.72142
rtoes -5.91874
lfemur -27.9987 13.4913 -23.66
ltibia 41.5445
lfoot -16.2958 -14.2913
ltoes 33.723
1079
root -8.63356 17.1867 -0.951045 -167.122 -6.39896 -180.276
lowerback 4.87341 -0.351569 -1.4781
upperback 1.15199 -0.573541 0.849436
thorax -1.52497 -0.3008 1.7372
lowerneck -7.83692 -2.04941 2.31514
upperneck 6.6085 -2.9233 -1.15159
head 3.4757 -1.44236 -0.945294
rclavicle -4.52235e-015 7.35503e-015
rhumerus -18.9 15.9875 -85.0743
rradius 70.5915
rwrist 38.927
rhand -44.6412 -30.0267
rfingers 7.12502
rthumb -17.4384 -59.2645
lclavicle -4.52235e-015 7.35503e-015
lhumerus -45.4393 -19.3088 98.6721
lradius 61.3574
lwrist -0.189682
lhand -17.8454 28.3671
lfingers 7.12502
lthumb 8.41958 58.1793
rfemur -51.5854 -3.23101 18.9102
rtibia 62.1169
rfoot 10.5486 4.23444
rtoes -5.24861
lfemur -27.9653 13.4678 -23.8327
ltibia 41.3165
lfoot -16.4084 -14.2269
ltoes 33.7367
1080
root -8.63344 17.186 -0.880348 -167.227 -6.41764 -180.276
lowerback 4.86104 -0.369237 -1.57061
upperback 1.16206 -0.601734 0.840853
thorax -1.5057 -0.314882 1.78186
lowerneck -7.71178 -2.05243 2.27062
upperneck 6.5121 -2.92826 -1.03675
head 3.41969 -1.44162 -0.896056
rclavicle 1.93815e-015 3.67752e-015
rhumerus -20.0432 15.8307 -85.7076
rradius 70.3362
rwrist 38.733
rhand -44.877 -29.9804
rfingers 7.12502
rthumb -17.6653 -59.1979
lclavicle 1.93815e-015 3.67752e-015
lhumerus -45.0235 -19.5888 98.3809
lradius 62.9898
lwrist -0.801616
lhand -18.5425 27.5139
lfingers 7.12502
lthumb 7.74677 57.352
rfemur -51.9468 -3.35957 19.0677
rtibia 63.3843
rfoot 11.7759 4.63731
rtoes -4.83835
lfemur -28.0017 13.4517 -23.9123
ltibia 41.1052
lfoot -16.428 -14.1367
ltoes 33.7509
1081
root -8.63261 17.1856 -0.810575 -167.364 -6.55946 -180.321
lowerback 4.88904 -0.440259 -1.66303
upperback 1.16406 -0.701789 0.808687
thorax -1.51432 -0.36443 1.80701
lowerneck -7.61139 -2.07604 2.44181
upperneck 6.42477 -2.96695 -1.1452
head 3.3654 -1.46149 -0.96057
rclavicle 8.84592e-015 -6.95746e-016
rhumerus -21.1616 15.7319 -86.3524
rradius 70.0522
rwrist 38.5693
rhand -44.8897 -30.2263
rfingers 7.12502
rthumb -17.6775 -59.4427
lclavicle 8.84592e-015 -6.95746e-016
lhumerus -44.4491 -19.8457 98.0201
lradius 64.3576
lwrist -1.5412
lhand -19.0171 27.0255
lfingers 7.12502
lthumb 7.28867 56.88
rfemur -52.2199 -3.59574 19.1941
rtibia 64.6332
rfoot 12.983 4.95429
rtoes -3.44326
lfemur -27.967 13.3067 -23.9916
ltibia 40.8457
lfoot -16.4232 -14.121
ltoes 34.2865
1082
root -8.62994 17.1881 -0.737772 -167.483 -6.73449 -180.315
lowerback 4.97179 -0.520308 -1.71813
upperback 1.16756 -0.813243 0.800712
thorax -1.55145 -0.419797 1.83756
lowerneck -7.79234 -2.0558 2.36267
upperneck 6.53596 -2.94879 -0.986214
head 3.44279 -1.44705 -0.898569
rclavicle -2.93207e-015 -6.95746e-016
rhumerus -22.232 15.5815 -86.9703
rradius 69.7036
rwrist 38.5078
rhand -45.124 -30.1065
rfingers 7.12502
rthumb -17.903 -59.3025
lclavicle -2.93207e-015 -6.95746e-016
lhumerus -44.0658 -20.1871 97.634
lradius 66.3015
lwrist -2.07859
lhand -19.5315 26.7336
lfingers 7.12502
lthumb 6.79205 56.6046
rfemur -52.4871 -3.81426 19.3645
rtibia 65.835
rfoot 14.2999 5.2518
rtoes -2.52084
lfemur -27.9695 13.1244 -24.0058
ltibia 40.5706
lfoot -16.3956 -14.0899
ltoes 34.5157
1083
root -8.62826 17.187 -0.668842 -167.599 -6.92282 -180.225
lowerback 4.9323 -0.582363 -1.6241
upperback 1.21307 -0.892047 0.796543
thorax -1.48067 -0.4612 1.78423
lowerneck -7.94354 -2.09346 2.35718
upperneck 6.57007 -3.0058 -0.935628
head 3.48382 -1.4727 -0.887274
rclavicle -1.27471e-014 9.44227e-015
rhumerus -23.2162 15.33 -87.5457
rradius 69.2765
rwrist 38.4
rhand -45.1591 -30.1925
rfingers 7.12502
rthumb -17.9367 -59.3854
lclavicle -1.27471e-014 9.44227e-015
lhumerus -43.3578 -20.5763 97.2344
lradius 67.9211
lwrist -2.65932
lhand -20.0779 26.4588
lfingers 7.12502
lthumb 6.26459 56.3462
rfemur -52.6837 -4.09916 19.6464
rtibia 67.0103
rfoot 15.5063 5.59579
rtoes -0.26976
lfemur -27.968 12.8978 -23.9199
ltibia 40.286
lfoot -16.3836 -14.0029
ltoes 34.5528
1084
root -8.62649 17.1885 -0.598914 -167.75 -7.04699 -180.167
lowerback 5.00312 -0.633294 -1.57586
upperback 1.19965 -0.958816 0.770908
thorax -1.5324 -0.493988 1.73604
lowerneck -7.89557 -2.06784 2.36213
upperneck 6.55833 -2.97768 -0.856519
head 3.47194 -1.45554 -0.85955
rclavicle -4.4975e-015 -2.23633e-015
rhumerus -24.3924 15.0414 -88.1778
rradius 68.8779
rwrist 38.3817
rhand -45.1676 -30.0136
rfingers 7.12502
rthumb -17.9449 -59.2057
lclavicle -4.4975e-015 -2.23633e-015
lhumerus -42.9976 -21.0316 96.8442
lradius 69.848
lwrist -3.35286
lhand -20.8803 26.0172
lfingers 7.12502
lthumb 5.48989 55.9261
rfemur -52.8229 -4.3127 19.8544
rtibia 68.1447
rfoot 16.7541 6.15385
rtoes 0.504159
lfemur -27.9026 12.6297 -23.8622
ltibia 39.9902
lfoot -16.4723 -13.7768
ltoes 34.4155
1085
root -8.62492 17.1897 -0.530507 -167.879 -7.2226 -180.104
lowerback 5.02302 -0.732382 -1.55005
upperback 1.14592 -1.0877 0.783289
thorax -1.59358 -0.556516 1.74304
lowerneck -7.59377 -2.0239 2.42981
upperneck 6.42337 -2.9167 -0.88325
head 3.36616 -1.42623 -0.869548
rclavicle 1.64494e-014 -5.06901e-015
rhumerus -25.6647 14.8705 -88.8053
rradius 68.497
rwrist 38.2756
rhand -45.1441 -30.0517
rfingers 7.12502
rthumb -17.9223 -59.2459
lclavicle 1.64494e-014 -5.06901e-015
lhumerus -42.5033 -21.3791 96.4032
lradius 71.5295
lwrist -4.18171
lhand -21.8428 25.0794
lfingers 7.12502
lthumb 4.56056 55.0104
rfemur -52.9091 -4.60264 20.0685
rtibia 69.2486
rfoot 17.8823 6.37575
rtoes 2.10692
lfemur -27.8513 12.3291 -23.8004
ltibia 39.6853
lfoot -16.4771 -13.6064
ltoes 34.6059
